<svg width="24" height="24" viewBox="0 0 24 24" fill="none" xmlns="http://www.w3.org/2000/svg">
<mask id="mask0_859_118" style="mask-type:alpha" maskUnits="userSpaceOnUse" x="0" y="0" width="24" height="24">
<rect width="24" height="24" fill="#D9D9D9"/>
</mask>
<g mask="url(#mask0_859_118)">
<path d="M7.9499 21C7.58324 21 7.2499 20.9125 6.9499 20.7375C6.6499 20.5625 6.40824 20.3167 6.2249 20L2.1749 13C1.99157 12.6833 1.8999 12.35 1.8999 12C1.8999 11.65 1.99157 11.3167 2.1749 11L6.2249 4C6.40824 3.68333 6.6499 3.4375 6.9499 3.2625C7.2499 3.0875 7.58324 3 7.9499 3H16.0499C16.4166 3 16.7499 3.0875 17.0499 3.2625C17.3499 3.4375 17.5916 3.68333 17.7749 4L21.8249 11C22.0082 11.3167 22.0999 11.65 22.0999 12C22.0999 12.35 22.0082 12.6833 21.8249 13L17.7749 20C17.5916 20.3167 17.3499 20.5625 17.0499 20.7375C16.7499 20.9125 16.4166 21 16.0499 21H7.9499ZM7.9499 19H16.0499L20.0749 12L16.0499 5H7.9499L3.8999 12L7.9499 19Z" fill="#1C1B1F"/>
</g>
</svg>
