<svg width="128" height="128" viewBox="0 0 128 128" fill="none" xmlns="http://www.w3.org/2000/svg">
<mask id="mask0_482_440" style="mask-type:alpha" maskUnits="userSpaceOnUse" x="0" y="0" width="128" height="128">
<path d="M0 25.6C0 16.6392 0 12.1587 1.7439 8.73615C3.27787 5.72556 5.72556 3.27787 8.73615 1.7439C12.1587 0 16.6392 0 25.6 0H102.4C111.361 0 115.841 0 119.264 1.7439C122.274 3.27787 124.722 5.72556 126.256 8.73615C128 12.1587 128 16.6392 128 25.6V102.4C128 111.361 128 115.841 126.256 119.264C124.722 122.274 122.274 124.722 119.264 126.256C115.841 128 111.361 128 102.4 128H25.6C16.6392 128 12.1587 128 8.73615 126.256C5.72556 124.722 3.27787 122.274 1.7439 119.264C0 115.841 0 111.361 0 102.4V25.6Z" fill="#6C87B8"/>
</mask>
<g mask="url(#mask0_482_440)">
<path d="M22.0001 69.0003L9.25007 47.5003L22.0001 26.0002C31.9585 26.0002 37.5417 26.0002 47.5001 26.0002L60.2501 47.5003L47.5001 69.0003H22.0001Z" fill="#247383"/>
<path d="M-16.25 47.5002L-29 26.0002L-16.25 4.50021H9.25007C14.2293 12.8965 17.0209 17.6039 22.0001 26.0002L9.25007 47.5003L-16.25 47.5002Z" fill="#1E977C"/>
<path d="M-16.25 90.5003L-29 69.0003L-16.25 47.5002L9.25007 47.5003L22.0001 69.0003L9.25001 90.5003H-16.25Z" fill="#305282"/>
<path d="M98.5001 112C93.5209 103.604 90.7293 98.8964 85.7501 90.5002L98.5001 69.0003H124L136.75 90.5002L124 112L98.5001 112Z" fill="#1E977C"/>
<path d="M175 26.0003L172.035 21.0001L162.25 4.50046L175 -16.9995L200.501 -16.9993L213.25 4.50058L200.5 26.0006L175 26.0003Z" fill="#825586"/>
<path d="M98.5 155L85.7501 133.5L95.9796 116.25L98.5001 112L124 112L136.75 133.5L124 155L98.5 155Z" fill="#305282"/>
<path d="M136.75 133.5L124 112L136.75 90.5002H162.25L175 112L162.25 133.5L136.75 133.5Z" fill="#305282"/>
<path d="M60.2501 47.5003H85.7501L85.75 39.5003H60.25L60.2501 47.5003Z" fill="#34934E"/>
<path d="M47.5001 26.0002L60.2501 47.5003L60.25 39.5003L49.8721 22.0003L47.5 18.0002L47.5001 21.0001L47.5001 26.0002Z" fill="#3BA558"/>
<path d="M60.25 39.5003H85.75L96.128 22.0001L98.5 18.0002L85.75 -3.49982H60.25L47.5 18.0002L49.8721 22.0003L60.25 39.5003Z" fill="#42B962"/>
<path d="M47.5 18.0002L60.25 -3.49982L47.5 -19.9998H22L9.25 -0.499817L22.0001 21.0001H47.5001L47.5 18.0002Z" fill="#1E977C"/>
<path d="M22.0001 26.0002C31.9585 26.0002 37.5417 26.0002 47.5001 26.0002L47.5001 21.0001H22.0001V26.0002Z" fill="#156A57"/>
<path d="M9.25007 4.50021C14.2293 12.8965 17.0209 17.6039 22.0001 26.0002V21.0001L9.25 -0.499817L9.25007 4.50021Z" fill="#198069"/>
<path d="M85.7501 47.5003H60.2501L47.5001 69.0003L60.2501 90.5002H85.7501L98.5001 69.0003L85.7501 47.5003Z" fill="#247383"/>
<path d="M124 65.0003L136.75 43.5003L130.375 32.7502L124 22.0002H98.5C93.5208 30.3965 90.7292 35.104 85.75 43.5003C90.7292 51.8966 93.5208 56.604 98.5 65.0003H124Z" fill="#42B962"/>
<path d="M85.7501 47.5003L98.5001 69.0003L98.5 65.0003C93.5208 56.604 90.7292 51.8966 85.75 43.5003L85.7501 47.5003Z" fill="#3BA558"/>
<path d="M98.5001 69.0003H124L124 65.0003H98.5L98.5001 69.0003Z" fill="#34934E"/>
<path d="M136.75 44.0001L136.75 43.5003L124 65.0003L124 69.0003C128.979 60.604 131.771 55.8965 136.75 47.5003L136.75 44.0001Z" fill="#276D3A"/>
<path d="M85.75 39.5003V43.5003C90.7292 35.104 93.5208 30.3965 98.5 22.0002V18.0002L96.128 22.0001L85.75 39.5003Z" fill="#276D3A"/>
<path d="M136.75 37.5003C131.771 29.104 128.979 24.3965 124 16.0002V22.0002L130.375 32.7502L136.75 43.5003V37.5003Z" fill="#86C229"/>
<path d="M22 120.5L47.5001 120.5L60.2501 98.9999L47.5001 77.5001H22.0001C17.0209 85.8963 14.2292 90.6038 9.25001 99L22 120.5Z" fill="#3E2D73"/>
<path d="M60.2501 90.5002L47.5001 69.0003V77.5001L60.2501 98.9999V90.5002Z" fill="#1F6270"/>
<path d="M47.5001 69.0003H22.0001V77.5001H47.5001V69.0003Z" fill="#19515C"/>
<path d="M22.0001 69.0003L9.25001 90.5003V99C14.2292 90.6038 17.0209 85.8963 22.0001 77.5001V69.0003Z" fill="#223B5D"/>
<path d="M85.7501 90.5002H60.2501V98.9999L85.7501 98.9998L85.7501 90.5002Z" fill="#19515C"/>
<path d="M98.5001 112C93.5209 103.604 90.7293 98.8964 85.7501 90.5002L85.7501 98.9998L95.9796 116.25L98.5001 112Z" fill="#198069"/>
<path d="M-16.25 4.50021H9.25007L9.25 -0.499817L22 -19.9998L9.25008 -38.4998H-16.2499L-29 -16.9998L-16.25 4.50021Z" fill="#1E977C"/>
<path d="M124 69.0003L136.75 90.5002H162.25L175 69.0002L162.25 47.5003L136.75 47.5003C131.771 55.8965 128.979 60.604 124 69.0003Z" fill="#42B962"/>
<path d="M162.25 4.50046L136.75 4.50015V-22.4999L136.75 -5.49982L124 16.0002L136.75 37.5003L162.25 37.5004L172.035 21.0001L162.25 4.50046Z" fill="#95D432"/>
<path d="M124 -0.999939H98.5001L98.5 18.0002V22.0002H124V16.0002L124 -0.999939Z" fill="#E9CE02"/>
<path d="M136.75 -22.4999L124 -0.999939L124 16.0002L136.75 -5.49982L136.75 -22.4999Z" fill="#B6A202"/>
<path d="M98.5001 -0.999939L85.7501 -22.4999V-11.9999L85.75 -3.49982L98.5 18.0002L98.5001 -0.999939Z" fill="#FDE107"/>
<path d="M22 129L9.25001 107.5H-13.2845L-15 151L9.25 150.5L15.18 140.5L22 129Z" fill="#3C0F4A"/>
<path d="M22 120.5L9.25001 99V107.5L22 129L22 120.5Z" fill="#33255F"/>
<path d="M47.5001 120.5L22 120.5L22 129V137L47.5001 135.5C47.5001 129.642 47.5001 126.358 47.5001 120.5Z" fill="#2A1E4D"/>
<path d="M22 137V129L15.18 140.5L22 137Z" fill="#5B9FC9" fill-opacity="0.8"/>
<path d="M60.2501 98.9999L47.5001 120.5L56.0991 135L60.25 142L85.7497 142L85.7501 133.5L95.9796 116.25L85.7501 98.9998L60.2501 98.9999Z" fill="#247383"/>
<path d="M47.5001 120.5V135.5L56.0991 135L47.5001 120.5Z" fill="#1F6270"/>
<path d="M9.25001 90.5003H-16.25L-16.2496 99L-13.2845 107.5H9.25001V99V90.5003Z" fill="#294670"/>
</g>
<path fill-rule="evenodd" clip-rule="evenodd" d="M9.25 99L12.7001 98L24.2001 77.5L22 77.5L9.25 99Z" fill="black" fill-opacity="0.05"/>
<path d="M22 77.5L24.2001 77.5V72L22 69V77.5Z" fill="black" fill-opacity="0.05"/>
<path fill-rule="evenodd" clip-rule="evenodd" d="M85.75 43.5L88.4998 43L100.5 22H98.4998L85.75 43.5Z" fill="black" fill-opacity="0.05"/>
<path d="M98.4998 22H100.5V19.5L98.4998 18V22Z" fill="black" fill-opacity="0.05"/>
<g filter="url(#filter0_f_482_440)">
<ellipse cx="43.544" cy="96.8465" rx="19.7308" ry="6.10716" transform="rotate(-11.2733 43.544 96.8465)" fill="black" fill-opacity="0.15"/>
</g>
<g filter="url(#filter1_f_482_440)">
<ellipse cx="101.544" cy="86.8465" rx="19.7308" ry="6.10716" transform="rotate(-11.2733 101.544 86.8465)" fill="black" fill-opacity="0.15"/>
</g>
<g filter="url(#filter2_f_482_440)">
<ellipse cx="72.8624" cy="92.0511" rx="16.1617" ry="2.09079" transform="rotate(-10.6598 72.8624 92.0511)" fill="black" fill-opacity="0.15"/>
</g>
<mask id="mask1_482_440" style="mask-type:alpha" maskUnits="userSpaceOnUse" x="2" y="5" width="126" height="114">
<rect x="2" y="5" width="126" height="114" fill="white"/>
</mask>
<g mask="url(#mask1_482_440)">
<path d="M128 67.5L124 69L130 59L128 67.5Z" fill="black" fill-opacity="0.05"/>
<path fill-rule="evenodd" clip-rule="evenodd" d="M24.4691 94.4558C22.4191 91.9464 21.3941 88.8032 21.3941 85.0262C21.3941 80.1026 23.1979 75.6385 26.8055 71.634C30.4125 67.629 34.775 65.2037 39.8929 64.358C44.6163 63.5775 48.663 64.3302 52.033 66.6162C53.2462 67.4393 54.2871 68.3794 55.1555 69.4364L52.7613 66.4501C51.8929 65.3931 50.8521 64.453 49.6389 63.6299C46.2688 61.3439 42.2222 60.5912 37.4988 61.3717C32.3808 62.2174 28.0183 64.6428 24.4114 68.6478C20.8038 72.6522 19 77.1163 19 82.0399C19 85.8169 20.025 88.9602 22.075 91.4696L24.4691 94.4558Z" fill="#DBDBDB"/>
<path fill-rule="evenodd" clip-rule="evenodd" d="M55.1554 69.4364C56.6992 71.3155 57.6981 73.5643 58.1522 76.1827L55.758 73.1964C55.304 70.578 54.3051 68.3292 52.7612 66.4501L55.1554 69.4364Z" fill="#DBDBDB"/>
<path fill-rule="evenodd" clip-rule="evenodd" d="M58.1523 76.1828L62.8558 75.4056L55.171 56.3654L52.7769 53.3792L60.4617 72.4193L55.7581 73.1965L58.1523 76.1828Z" fill="#DBDBDB"/>
<path fill-rule="evenodd" clip-rule="evenodd" d="M55.1709 56.3654L51.5763 56.9594C50.7487 57.0961 50.0552 56.9452 49.4957 56.5065C49.3612 56.4013 49.2429 56.286 49.1407 56.1608L46.7466 53.1746C46.8488 53.2998 46.9671 53.415 47.1015 53.5202C47.661 53.9589 48.3545 54.1098 49.1821 53.9731L52.7767 53.3791L55.1709 56.3654Z" fill="#DBDBDB"/>
<path fill-rule="evenodd" clip-rule="evenodd" d="M49.1407 56.1608C48.8171 55.7644 48.6554 55.268 48.6554 54.6716C48.6554 53.8862 48.9354 53.1823 49.4956 52.5599C50.0551 51.9369 50.7486 51.5571 51.5762 51.4203L63.2597 49.4897C64.0873 49.353 64.7808 49.5039 65.3404 49.9426C65.4748 50.0479 65.5931 50.1631 65.6953 50.2883L63.3011 47.302C63.199 47.1768 63.0807 47.0616 62.9462 46.9563C62.3866 46.5176 61.6931 46.3667 60.8656 46.5035L49.1821 48.434C48.3545 48.5708 47.661 48.9506 47.1015 49.5736C46.5413 50.196 46.2612 50.9 46.2612 51.6853C46.2612 52.2817 46.423 52.7781 46.7465 53.1745L49.1407 56.1608Z" fill="#DBDBDB"/>
<path fill-rule="evenodd" clip-rule="evenodd" d="M65.6953 50.2883C66.0188 50.6848 66.1806 51.1812 66.1806 51.7775C66.1806 52.5628 65.9005 53.2667 65.3404 53.8892C64.7808 54.5122 64.0873 54.892 63.2597 55.0287L61.4469 55.3283L63.4846 60.4596L61.0905 57.4733L59.0527 52.342L60.8656 52.0425C61.6932 51.9057 62.3867 51.5259 62.9463 50.9029C63.5064 50.2805 63.7864 49.5765 63.7864 48.7912C63.7864 48.1949 63.6247 47.6985 63.3012 47.302L65.6953 50.2883Z" fill="#DBDBDB"/>
<path fill-rule="evenodd" clip-rule="evenodd" d="M63.4845 60.4597L84.3502 57.0119L78.2533 42.112C78.222 42.0277 78.1818 41.9543 78.1327 41.8918L75.7385 38.9055C75.7876 38.9681 75.8279 39.0415 75.8592 39.1257L81.956 54.0256L61.0903 57.4734L63.4845 60.4597Z" fill="#DBDBDB"/>
<path fill-rule="evenodd" clip-rule="evenodd" d="M78.133 41.8918C78.0652 41.8054 77.9805 41.7398 77.8788 41.6948C77.7042 41.6172 77.5047 41.5969 77.2801 41.634L71.0489 42.6637C70.2214 42.8004 69.5278 42.6495 68.9683 42.2108C68.8339 42.1055 68.7156 41.9903 68.6134 41.8651L66.2192 38.8788C66.3214 39.004 66.4397 39.1192 66.5742 39.2245C67.1336 39.6632 67.8272 39.8141 68.6547 39.6774L74.8859 38.6478C75.1105 38.6107 75.3101 38.6309 75.4847 38.7085C75.5863 38.7535 75.6711 38.8192 75.7389 38.9055L78.133 41.8918Z" fill="#DBDBDB"/>
<path fill-rule="evenodd" clip-rule="evenodd" d="M68.6134 41.8651C68.2898 41.4686 68.128 40.9722 68.128 40.3758C68.128 39.5905 68.4082 38.8866 68.9683 38.2642C69.5278 37.6412 70.2214 37.2613 71.0489 37.1246L77.2801 36.0949C78.7432 35.8532 80.0631 36.0148 81.2398 36.5798C81.9463 36.9192 82.5338 37.3757 83.0024 37.9495L80.6083 34.9633C80.1397 34.3894 79.5522 33.9329 78.8457 33.5936C77.6689 33.0285 76.349 32.8669 74.8859 33.1087L68.6547 34.1383C67.8272 34.275 67.1337 34.6549 66.5742 35.2779C66.014 35.9003 65.7339 36.6042 65.7339 37.3895C65.7339 37.9859 65.8957 38.4823 66.2192 38.8788L68.6134 41.8651Z" fill="#DBDBDB"/>
<path fill-rule="evenodd" clip-rule="evenodd" d="M83.0021 37.9495C83.3144 38.3321 83.574 38.7667 83.7806 39.2535L90.6262 55.8612L88.232 52.8749L81.3865 36.2672C81.1798 35.7805 80.9203 35.3458 80.6079 34.9633L83.0021 37.9495Z" fill="#DBDBDB"/>
<path fill-rule="evenodd" clip-rule="evenodd" d="M90.6266 55.8611L94.4159 55.235C99.5339 54.3893 103.896 55.3788 107.503 58.2035C108.369 58.8812 109.131 59.6174 109.789 60.412L107.395 57.4258C106.737 56.6311 105.975 55.8949 105.109 55.2172C101.502 52.3925 97.1398 51.403 92.0217 52.2487L88.2324 52.8748L90.6266 55.8611Z" fill="#DBDBDB"/>
<path fill-rule="evenodd" clip-rule="evenodd" d="M109.789 60.4121C111.873 62.9284 112.914 66.0306 112.914 69.7187C112.914 74.6128 111.119 79.0754 107.529 83.1065C103.939 87.1371 99.5681 89.578 94.4156 90.4294C89.8422 91.1851 85.8552 90.4532 82.4547 88.234C81.1627 87.3906 80.0586 86.411 79.1422 85.2953L76.748 82.309C77.6644 83.4247 78.7686 84.4043 80.0605 85.2477C83.4611 87.467 87.4481 88.1988 92.0215 87.4431C97.1739 86.5918 101.545 84.1508 105.135 80.1203C108.725 76.0891 110.52 71.6265 110.52 66.7325C110.52 63.0443 109.478 59.9421 107.395 57.4258L109.789 60.4121Z" fill="#DBDBDB"/>
<path fill-rule="evenodd" clip-rule="evenodd" d="M79.1422 85.2953C77.647 83.4749 76.6517 81.2921 76.1563 78.7468L73.7622 75.7605C74.2576 78.3058 75.2529 80.4886 76.748 82.309L79.1422 85.2953Z" fill="#DBDBDB"/>
<path fill-rule="evenodd" clip-rule="evenodd" d="M76.1562 78.7468L58.152 81.7218C57.4425 86.0856 55.3667 89.9521 51.9246 93.3211C48.482 96.6904 44.4768 98.7523 39.9092 99.507C34.6633 100.374 30.2661 99.4194 26.7176 96.6435C25.8658 95.9775 25.1162 95.2483 24.4688 94.4558L22.0747 91.4695C22.7221 92.262 23.4717 92.9912 24.3235 93.6572C27.872 96.4331 32.2692 97.3876 37.515 96.5208C42.0827 95.766 46.0878 93.7041 49.5305 90.3349C52.9726 86.9658 55.0484 83.0994 55.7578 78.7355L73.7621 75.7605L76.1562 78.7468Z" fill="#DBDBDB"/>
<path fill-rule="evenodd" clip-rule="evenodd" d="M52.0708 82.7266L43.7872 84.0954C42.9597 84.2322 42.2661 84.0812 41.7066 83.6426C41.5721 83.5373 41.4538 83.4221 41.3517 83.2969L38.9575 80.3106C39.0597 80.4358 39.178 80.551 39.3124 80.6563C39.8719 81.095 40.5655 81.2459 41.3931 81.1091L49.6767 79.7404L52.0708 82.7266Z" fill="#DBDBDB"/>
<path fill-rule="evenodd" clip-rule="evenodd" d="M41.3517 83.2969C41.0281 82.9004 40.8663 82.404 40.8663 81.8076C40.8663 81.0223 41.1464 80.3184 41.7066 79.6959C42.2661 79.073 42.9597 78.6931 43.7872 78.5564L52.0708 77.1876C51.6635 75.7135 51.0452 74.4498 50.2158 73.3967L47.8217 70.4104C48.651 71.4636 49.2694 72.7272 49.6767 74.2013L41.3931 75.5701C40.5655 75.7068 39.8719 76.0867 39.3124 76.7097C38.7523 77.3321 38.4722 78.036 38.4722 78.8214C38.4722 79.4177 38.634 79.9142 38.9575 80.3106L41.3517 83.2969Z" fill="#DBDBDB"/>
<path fill-rule="evenodd" clip-rule="evenodd" d="M50.2161 73.3967C49.5096 72.4995 48.65 71.7552 47.6372 71.1635C45.4355 69.8772 42.8542 69.4788 39.893 69.9681C36.3068 70.5607 33.3007 72.2074 30.8744 74.9082C28.4488 77.6096 27.2359 80.6605 27.2359 84.0609C27.2359 86.5133 27.9001 88.5902 29.2284 90.2915L26.8342 87.3052C25.5059 85.604 24.8418 83.5271 24.8418 81.0746C24.8418 77.6742 26.0546 74.6233 28.4802 71.9219C30.9065 69.2211 33.9127 67.5744 37.4989 66.9818C40.46 66.4925 43.0413 66.891 45.243 68.1772C46.2558 68.7689 47.1155 69.5133 47.822 70.4104L50.2161 73.3967Z" fill="#DBDBDB"/>
<path fill-rule="evenodd" clip-rule="evenodd" d="M29.2281 90.2915C29.6948 90.8892 30.2435 91.4405 30.8742 91.9455C33.3004 93.8882 36.3066 94.5633 39.8928 93.9707C42.8539 93.4814 45.4353 92.2207 47.637 90.1884C49.8387 88.1554 51.3166 85.6682 52.0709 82.7266L49.6768 79.7404C48.9225 82.6819 47.4445 85.1691 45.2428 87.2021C43.0411 89.2344 40.4598 90.4952 37.4986 90.9845C33.9125 91.577 30.9063 90.9019 28.48 88.9592C27.8494 88.4543 27.3007 87.9029 26.834 87.3052L29.2281 90.2915Z" fill="#DBDBDB"/>
<path d="M35 94.5V91C31.4494 91.2447 28.3427 89.8675 27 87V90.5L35 94.5Z" fill="url(#paint0_linear_482_440)" fill-opacity="0.1"/>
<path fill-rule="evenodd" clip-rule="evenodd" d="M69.2066 74.3561L76.1564 73.2077C76.4309 71.6046 76.9814 69.8532 77.8076 67.9534C78.6346 66.0529 79.802 64.4195 81.3098 63.0533L78.9156 60.067C77.4078 61.4332 76.2404 63.0666 75.4135 64.9671C74.5872 66.8669 74.0368 68.6184 73.7623 70.2215L66.8125 71.3698L69.2066 74.3561Z" fill="#DBDBDB"/>
<path fill-rule="evenodd" clip-rule="evenodd" d="M81.3099 63.0533L65.5362 65.6597L69.2068 74.3561L66.8126 71.3698L63.1421 62.6734L78.9158 60.067L81.3099 63.0533Z" fill="#DBDBDB"/>
<path fill-rule="evenodd" clip-rule="evenodd" d="M105.081 64.5527C104.614 63.9579 104.065 63.4134 103.435 62.9194C101.008 61.0197 98.002 60.3662 94.4159 60.9587C94.0615 61.0173 93.7593 61.0731 93.5095 61.1261C93.2603 61.1789 92.983 61.2662 92.678 61.3881L95.6212 68.337C95.9114 69.0135 95.8873 69.7178 95.5492 70.4501C95.2117 71.1822 94.6567 71.7521 93.8843 72.1598C93.1203 72.5611 92.3713 72.6622 91.6372 72.4628C91.1376 72.3277 90.74 72.0804 90.4444 71.721L88.0503 68.7347C88.3458 69.0942 88.7434 69.3414 89.2431 69.4765C89.9772 69.6759 90.7262 69.5748 91.4902 69.1735C92.2626 68.7659 92.8176 68.196 93.155 67.4638C93.4932 66.7315 93.5173 66.0272 93.2271 65.3508L90.2839 58.4018C90.5889 58.28 90.8661 58.1926 91.1153 58.1398C91.3652 58.0868 91.6674 58.031 92.0217 57.9725C95.6079 57.3799 98.6142 58.0334 101.04 59.9331C101.671 60.4272 102.22 60.9716 102.686 61.5664L105.081 64.5527Z" fill="#DBDBDB"/>
<path fill-rule="evenodd" clip-rule="evenodd" d="M90.4443 71.721C90.3053 71.5518 90.1888 71.3578 90.0949 71.139L87.3463 64.2142L84.9521 61.2279L87.7007 68.1527C87.7946 68.3715 87.9111 68.5656 88.0502 68.7347L90.4443 71.721Z" fill="#DBDBDB"/>
<path fill-rule="evenodd" clip-rule="evenodd" d="M87.346 64.2142C85.5734 65.6248 84.199 67.2841 83.2227 69.192C82.2466 71.1006 81.7584 73.0538 81.7584 75.0515C81.7584 77.504 82.4226 79.5809 83.7508 81.2821L81.3567 78.2958C80.0284 76.5946 79.3643 74.5177 79.3643 72.0652C79.3643 70.0675 79.8524 68.1143 80.8286 66.2058C81.8048 64.2978 83.1792 62.6385 84.9519 61.2279L87.346 64.2142Z" fill="#DBDBDB"/>
<path fill-rule="evenodd" clip-rule="evenodd" d="M83.7511 81.2821C84.2178 81.8799 84.7665 82.4312 85.3971 82.9362C87.8226 84.879 90.8285 85.5541 94.4148 84.9616C98.0003 84.3691 101.007 82.7005 103.433 79.9559C105.86 77.212 107.073 74.1782 107.073 70.8548C107.073 68.3463 106.409 66.2455 105.08 64.5527L102.686 61.5664C104.015 63.2593 104.679 65.36 104.679 67.8685C104.679 71.1919 103.466 74.2257 101.039 76.9696C98.6124 79.7142 95.6061 81.3828 92.0206 81.9753C88.4344 82.5679 85.4285 81.8927 83.003 79.9499C82.3723 79.4449 81.8236 78.8936 81.3569 78.2958L83.7511 81.2821Z" fill="#DBDBDB"/>
<path d="M48.0051 82.5001H47.5C47.7055 82.4777 47.8731 82.4779 48.0051 82.5001L52.5 82.5001C51.7651 85.2723 50.1011 87.2911 48 90.0001L43.5 89.0001L43.5068 88.9927C47.1278 85.0774 49.3093 82.7186 48.0051 82.5001Z" fill="url(#paint1_linear_482_440)" fill-opacity="0.08"/>
<path d="M39.9094 99.5071C34.6635 100.374 30.2663 99.4194 26.7178 96.6436C23.1686 93.8684 21.394 89.9959 21.394 85.0262C21.394 80.1026 23.1978 75.6385 26.8054 71.634C30.4124 67.629 34.7749 65.2037 39.8928 64.358C44.6162 63.5775 48.6629 64.3302 52.0329 66.6162C55.403 68.9027 57.4427 72.0915 58.1522 76.1828L62.8557 75.4056L55.1709 56.3654L51.5763 56.9594C50.7487 57.0962 50.0552 56.9452 49.4957 56.5066C48.9355 56.068 48.6555 55.4564 48.6555 54.6716C48.6555 53.8863 48.9355 53.1824 49.4957 52.5599C50.0552 51.937 50.7487 51.5571 51.5763 51.4204L63.2598 49.4898C64.0874 49.3531 64.7809 49.504 65.3405 49.9427C65.9006 50.3813 66.1806 50.993 66.1806 51.7776C66.1806 52.5629 65.9006 53.2668 65.3405 53.8893C64.7809 54.5123 64.0874 54.8921 63.2598 55.0289L61.4469 55.3284L63.4847 60.4597L84.3503 57.0119L78.2535 42.112C78.1789 41.9114 78.0539 41.7723 77.8787 41.6948C77.7041 41.6172 77.5045 41.597 77.2799 41.6341L71.0487 42.6637C70.2212 42.8004 69.5276 42.6495 68.9681 42.2108C68.408 41.7722 68.1279 41.1606 68.1279 40.3759C68.1279 39.5906 68.408 38.8867 68.9681 38.2642C69.5276 37.6412 70.2212 37.2614 71.0487 37.1246L77.2799 36.095C78.743 35.8532 80.0629 36.0149 81.2397 36.5799C82.4171 37.1454 83.2642 38.0366 83.7808 39.2536L90.6264 55.8612L94.4157 55.2351C99.5337 54.3894 103.896 55.3789 107.503 58.2036C111.111 61.0276 112.914 64.866 112.914 69.7188C112.914 74.6129 111.119 79.0754 107.529 83.1066C103.939 87.1372 99.5681 89.5781 94.4157 90.4295C89.8423 91.1852 85.8553 90.4533 82.4547 88.234C79.0549 86.0146 76.9554 82.8521 76.1564 78.7468L58.1522 81.7218C57.4427 86.0857 55.3669 89.9522 51.9248 93.3212C48.4822 96.6904 44.477 98.7523 39.9094 99.5071ZM39.8928 93.9708C42.854 93.4815 45.4353 92.2207 47.637 90.1884C49.8387 88.1555 51.3167 85.6682 52.071 82.7267L43.7874 84.0954C42.9598 84.2322 42.2662 84.0813 41.7067 83.6426C41.1466 83.204 40.8664 82.5924 40.8664 81.8077C40.8664 81.0224 41.1466 80.3184 41.7067 79.696C42.2662 79.073 42.9598 78.6932 43.7874 78.5564L52.071 77.1876C51.3167 74.4578 49.8387 72.4498 47.637 71.1635C45.4353 69.8773 42.854 69.4788 39.8928 69.9681C36.3067 70.5607 33.3005 72.2075 30.8742 74.9082C28.4486 77.6096 27.2358 80.6605 27.2358 84.0609C27.2358 87.3751 28.4486 90.0034 30.8742 91.9455C33.3005 93.8882 36.3067 94.5634 39.8928 93.9708ZM69.2066 74.3562L76.1564 73.2078C76.4309 71.6047 76.9814 69.8532 77.8076 67.9534C78.6346 66.0529 79.802 64.4195 81.3098 63.0533L65.5361 65.6598L69.2066 74.3562ZM94.4147 84.9616C98.0002 84.3692 101.006 82.7006 103.433 79.9559C105.86 77.212 107.073 74.1783 107.073 70.8549C107.073 67.465 105.86 64.8198 103.434 62.9195C101.008 61.0198 98.0018 60.3663 94.4157 60.9588C94.0613 61.0174 93.7591 61.0732 93.5092 61.1262C93.26 61.179 92.9828 61.2663 92.6778 61.3882L95.621 68.3371C95.9112 69.0136 95.8871 69.7179 95.549 70.4502C95.2115 71.1823 94.6565 71.7522 93.8841 72.1599C93.1201 72.5612 92.3711 72.6623 91.637 72.4629C90.9023 72.2643 90.3882 71.823 90.0948 71.139L87.3462 64.2143C85.5735 65.6248 84.1992 67.2842 83.2229 69.1921C82.2468 71.1007 81.7586 73.0539 81.7586 75.0516C81.7586 78.3658 82.9714 80.9941 85.3971 82.9362C87.8226 84.8791 90.8285 85.5542 94.4147 84.9616Z" fill="#9ABDA4"/>
</g>
<path d="M63.0002 75.5L60.5002 72.5L57.2002 72.9C57.7706 74.1102 57.9178 74.7894 58 76L63.0002 75.5Z" fill="black" fill-opacity="0.05"/>
<path d="M76 73.5L73.8 70.2219L68 71.5L69 74.5L76 73.5Z" fill="black" fill-opacity="0.05"/>
<path d="M74 58.5L71.5 55.5L62.5 57.5L63.5 60.5L74 58.5Z" fill="url(#paint2_linear_482_440)" fill-opacity="0.05"/>
<path d="M100.5 54L98 51L89 53L90 56L100.5 54Z" fill="url(#paint3_linear_482_440)" fill-opacity="0.05"/>
<path d="M94 85.5L91.5 82.5C88.1864 82.4966 86.3233 81.7402 83 80L83.5 81.5C87.1921 84.3916 88.6573 85.3077 94 85.5Z" fill="url(#paint4_linear_482_440)" fill-opacity="0.05"/>
<defs>
<filter id="filter0_f_482_440" x="19.1562" y="84.7218" width="48.7754" height="24.2495" filterUnits="userSpaceOnUse" color-interpolation-filters="sRGB">
<feFlood flood-opacity="0" result="BackgroundImageFix"/>
<feBlend mode="normal" in="SourceGraphic" in2="BackgroundImageFix" result="shape"/>
<feGaussianBlur stdDeviation="2.5" result="effect1_foregroundBlur_482_440"/>
</filter>
<filter id="filter1_f_482_440" x="77.1562" y="74.7218" width="48.7754" height="24.2495" filterUnits="userSpaceOnUse" color-interpolation-filters="sRGB">
<feFlood flood-opacity="0" result="BackgroundImageFix"/>
<feBlend mode="normal" in="SourceGraphic" in2="BackgroundImageFix" result="shape"/>
<feGaussianBlur stdDeviation="2.5" result="effect1_foregroundBlur_482_440"/>
</filter>
<filter id="filter2_f_482_440" x="51.9746" y="83.4232" width="41.7754" height="17.2559" filterUnits="userSpaceOnUse" color-interpolation-filters="sRGB">
<feFlood flood-opacity="0" result="BackgroundImageFix"/>
<feBlend mode="normal" in="SourceGraphic" in2="BackgroundImageFix" result="shape"/>
<feGaussianBlur stdDeviation="2.5" result="effect1_foregroundBlur_482_440"/>
</filter>
<linearGradient id="paint0_linear_482_440" x1="27.5" y1="90" x2="35" y2="92" gradientUnits="userSpaceOnUse">
<stop/>
<stop offset="1" stop-color="white"/>
</linearGradient>
<linearGradient id="paint1_linear_482_440" x1="51.5" y1="81" x2="47.75" y2="90.0001" gradientUnits="userSpaceOnUse">
<stop/>
<stop offset="1" stop-color="white"/>
</linearGradient>
<linearGradient id="paint2_linear_482_440" x1="63" y1="59" x2="72.5" y2="57.5" gradientUnits="userSpaceOnUse">
<stop/>
<stop offset="1" stop-color="#666666" stop-opacity="0"/>
</linearGradient>
<linearGradient id="paint3_linear_482_440" x1="89.5" y1="54.5" x2="99" y2="53" gradientUnits="userSpaceOnUse">
<stop/>
<stop offset="1" stop-color="#666666" stop-opacity="0"/>
</linearGradient>
<linearGradient id="paint4_linear_482_440" x1="82.5" y1="81.5" x2="92" y2="80" gradientUnits="userSpaceOnUse">
<stop/>
<stop offset="1" stop-color="#666666" stop-opacity="0"/>
</linearGradient>
</defs>
</svg>
