<svg width="24" height="24" viewBox="0 0 24 24" fill="none" xmlns="http://www.w3.org/2000/svg">
<mask id="mask0_859_123" style="mask-type:alpha" maskUnits="userSpaceOnUse" x="4" y="4" width="16" height="16">
<rect x="4" y="4" width="16" height="16" fill="currentColor"/>
</mask>
<g mask="url(#mask0_859_123)">
<path d="M11.332 12.6673H7.9987C7.80981 12.6673 7.65148 12.6034 7.5237 12.4757C7.39592 12.3479 7.33203 12.1895 7.33203 12.0007C7.33203 11.8118 7.39592 11.6534 7.5237 11.5257C7.65148 11.3979 7.80981 11.334 7.9987 11.334H11.332V8.00065C11.332 7.81176 11.3959 7.65343 11.5237 7.52565C11.6515 7.39787 11.8098 7.33398 11.9987 7.33398C12.1876 7.33398 12.3459 7.39787 12.4737 7.52565C12.6015 7.65343 12.6654 7.81176 12.6654 8.00065V11.334H15.9987C16.1876 11.334 16.3459 11.3979 16.4737 11.5257C16.6015 11.6534 16.6654 11.8118 16.6654 12.0007C16.6654 12.1895 16.6015 12.3479 16.4737 12.4757C16.3459 12.6034 16.1876 12.6673 15.9987 12.6673H12.6654V16.0007C12.6654 16.1895 12.6015 16.3479 12.4737 16.4757C12.3459 16.6034 12.1876 16.6673 11.9987 16.6673C11.8098 16.6673 11.6515 16.6034 11.5237 16.4757C11.3959 16.3479 11.332 16.1895 11.332 16.0007V12.6673Z" fill="#1C1B1F"/>
</g>
<mask id="mask1_859_123" style="mask-type:alpha" maskUnits="userSpaceOnUse" x="0" y="0" width="24" height="24">
<rect width="24" height="24" fill="currentColor"/>
</mask>
<g mask="url(#mask1_859_123)">
<path d="M7.9499 21C7.58324 21 7.2499 20.9125 6.9499 20.7375C6.6499 20.5625 6.40824 20.3167 6.2249 20L2.1749 13C1.99157 12.6833 1.8999 12.35 1.8999 12C1.8999 11.65 1.99157 11.3167 2.1749 11L6.2249 4C6.40824 3.68333 6.6499 3.4375 6.9499 3.2625C7.2499 3.0875 7.58324 3 7.9499 3H16.0499C16.4166 3 16.7499 3.0875 17.0499 3.2625C17.3499 3.4375 17.5916 3.68333 17.7749 4L21.8249 11C22.0082 11.3167 22.0999 11.65 22.0999 12C22.0999 12.35 22.0082 12.6833 21.8249 13L17.7749 20C17.5916 20.3167 17.3499 20.5625 17.0499 20.7375C16.7499 20.9125 16.4166 21 16.0499 21H7.9499ZM7.9499 19H16.0499L20.0749 12L16.0499 5H7.9499L3.8999 12L7.9499 19Z" fill="#1C1B1F"/>
</g>
</svg>
