<svg width="24" height="24" viewBox="0 0 24 24" fill="none" xmlns="http://www.w3.org/2000/svg">
<mask id="mask0_859_122" style="mask-type:alpha" maskUnits="userSpaceOnUse" x="4" y="4" width="16" height="16">
<rect x="4" y="4" width="16" height="16" fill="#D9D9D9"/>
</mask>
<g mask="url(#mask0_859_122)">
<path d="M8.00016 12.6666C7.81127 12.6666 7.65294 12.6027 7.52516 12.4749C7.39738 12.3471 7.3335 12.1888 7.3335 11.9999C7.3335 11.811 7.39738 11.6527 7.52516 11.5249C7.65294 11.3971 7.81127 11.3333 8.00016 11.3333H16.0002C16.1891 11.3333 16.3474 11.3971 16.4752 11.5249C16.6029 11.6527 16.6668 11.811 16.6668 11.9999C16.6668 12.1888 16.6029 12.3471 16.4752 12.4749C16.3474 12.6027 16.1891 12.6666 16.0002 12.6666H8.00016Z" fill="#1C1B1F"/>
</g>
<mask id="mask1_859_122" style="mask-type:alpha" maskUnits="userSpaceOnUse" x="0" y="0" width="24" height="24">
<rect width="24" height="24" fill="#D9D9D9"/>
</mask>
<g mask="url(#mask1_859_122)">
<path d="M7.9499 21C7.58324 21 7.2499 20.9125 6.9499 20.7375C6.6499 20.5625 6.40824 20.3167 6.2249 20L2.1749 13C1.99157 12.6833 1.8999 12.35 1.8999 12C1.8999 11.65 1.99157 11.3167 2.1749 11L6.2249 4C6.40824 3.68333 6.6499 3.4375 6.9499 3.2625C7.2499 3.0875 7.58324 3 7.9499 3H16.0499C16.4166 3 16.7499 3.0875 17.0499 3.2625C17.3499 3.4375 17.5916 3.68333 17.7749 4L21.8249 11C22.0082 11.3167 22.0999 11.65 22.0999 12C22.0999 12.35 22.0082 12.6833 21.8249 13L17.7749 20C17.5916 20.3167 17.3499 20.5625 17.0499 20.7375C16.7499 20.9125 16.4166 21 16.0499 21H7.9499ZM7.9499 19H16.0499L20.0749 12L16.0499 5H7.9499L3.8999 12L7.9499 19Z" fill="#1C1B1F"/>
</g>
</svg>
