<svg width="28" height="28" viewBox="0 0 28 28" fill="none" xmlns="http://www.w3.org/2000/svg">
<path fill-rule="evenodd" clip-rule="evenodd" d="M7.38327 15.75L3.2666 9L7.38327 2.25L15.6166 2.25L19.7333 9L17.8315 12.1183L17.2938 13L16.92 13.6128H15.0929L16 12.1183L17.8926 9L14.7062 3.75H8.29368L5.08743 9L8.29368 14.25H10V15.75H7.38327Z" fill="#434343"/>
<path d="M14.5752 26C14.1085 26 13.671 25.9 13.2627 25.7C12.8544 25.5 12.5085 25.2167 12.2252 24.85L7.37236 18.6838C7.29169 18.5813 7.23185 18.464 7.19622 18.3385L7.17452 18.2621C7.12579 18.0905 7.12386 17.909 7.16891 17.7364L7.18493 17.675C7.22773 17.511 7.30839 17.3569 7.43848 17.2483C7.73107 17.004 8.06831 16.8546 8.45018 16.8C8.91685 16.7333 9.35018 16.825 9.75018 17.075L11.6002 18.2V10C11.6002 9.71667 11.696 9.47917 11.8877 9.2875C12.0794 9.09583 12.3169 9 12.6002 9C12.8835 9 13.1252 9.09583 13.3252 9.2875C13.5252 9.47917 13.6252 9.71667 13.6252 10V15H21.1002C21.9335 15 22.6419 15.2917 23.2252 15.875C23.8085 16.4583 24.1002 17.1667 24.1002 18V22C24.1002 23.1 23.7085 24.0417 22.9252 24.825C22.1419 25.6083 21.2002 26 20.1002 26H14.5752Z" fill="#434343"/>
</svg>
