<svg width="20" height="20" viewBox="0 0 20 20" fill="none" xmlns="http://www.w3.org/2000/svg">
<g clip-path="url(#clip0_481_317)">
<path fill-rule="evenodd" clip-rule="evenodd" d="M5.27397 11.25L2.3335 6.42861L5.27397 1.60718L11.1549 1.60718L14.0954 6.42861L12.737 8.65597L12.3529 9.28575L12.086 9.72345H10.7809L11.4288 8.65597L12.7807 6.42861L10.5046 2.67861H5.92427L3.63409 6.42861L5.92427 10.1786H7.14307V11.25H5.27397Z" fill="#434343"/>
</g>
<path d="M10.4111 18.5716C10.0778 18.5716 9.76529 18.5001 9.47363 18.3573C9.18196 18.2144 8.93493 18.012 8.73255 17.7501L5.281 13.3645C5.21364 13.2789 5.16367 13.1809 5.13392 13.0761L5.13129 13.0669C5.09232 12.9296 5.09078 12.7845 5.1268 12.6465C5.16103 12.5154 5.22525 12.3916 5.33052 12.3063C5.53554 12.1401 5.77074 12.0381 6.03612 12.0001C6.36946 11.9525 6.67898 12.018 6.9647 12.1966L8.28613 13.0001V7.143C8.28613 6.94062 8.35458 6.77097 8.49148 6.63407C8.62839 6.49716 8.79803 6.42871 9.00041 6.42871C9.20279 6.42871 9.37541 6.49716 9.51827 6.63407C9.66113 6.77097 9.73255 6.94062 9.73255 7.143V10.7144H15.0718C15.6671 10.7144 16.173 10.9228 16.5897 11.3394C17.0064 11.7561 17.2147 12.262 17.2147 12.8573V15.7144C17.2147 16.5001 16.9349 17.1728 16.3754 17.7323C15.8159 18.2918 15.1433 18.5716 14.3576 18.5716H10.4111Z" fill="#434343"/>
<defs>
<clipPath id="clip0_481_317">
<rect width="14.6154" height="12.8571" fill="white"/>
</clipPath>
</defs>
</svg>
