<svg width="20" height="20" viewBox="0 0 20 20" fill="none" xmlns="http://www.w3.org/2000/svg">
<mask id="mask0_481_392" style="mask-type:alpha" maskUnits="userSpaceOnUse" x="2" y="-1" width="19" height="19">
<rect x="2" y="-1" width="19" height="19" fill="#D9D9D9"/>
</mask>
<g mask="url(#mask0_481_392)">
<path d="M14.502 2.16699C14.7437 2.16707 14.9643 2.22447 15.1621 2.33984C15.3598 2.45528 15.5188 2.61844 15.6396 2.82715L18.3115 7.44434C18.4323 7.65313 18.4932 7.87373 18.4932 8.10449C18.4931 8.3353 18.4324 8.55582 18.3115 8.76465L15.6396 13.3818C15.5188 13.5906 15.3599 13.7537 15.1621 13.8691L15.0088 13.9443C14.8523 14.0091 14.6831 14.0419 14.502 14.042H14V13.042H14.502C14.5768 13.0419 14.6219 13.026 14.6582 13.0049C14.6978 12.9817 14.7358 12.9476 14.7744 12.8809L17.4463 8.2627C17.4831 8.19909 17.4931 8.15116 17.4932 8.10449C17.4932 8.05784 17.4829 8.00982 17.4463 7.94629V7.94531L14.7744 3.32715C14.736 3.26092 14.6977 3.22726 14.6582 3.2041C14.6219 3.18294 14.5768 3.16706 14.502 3.16699H9.1582C9.08354 3.16701 9.03917 3.18306 9.00293 3.2041C8.9631 3.22733 8.92453 3.26113 8.88574 3.32812L8.88477 3.32715L7.91699 5H6.7627L8.02051 2.82715C8.11122 2.67047 8.22341 2.53966 8.35742 2.43555L8.49902 2.33984C8.69672 2.22469 8.91664 2.16701 9.1582 2.16699H14.502Z" fill="black"/>
</g>
<mask id="mask1_481_392" style="mask-type:alpha" maskUnits="userSpaceOnUse" x="0" y="3" width="17" height="18">
<rect y="3.5" width="17" height="17" fill="#D9D9D9"/>
</mask>
<g mask="url(#mask1_481_392)">
<path d="M4.9585 18.375C4.56891 18.375 4.23541 18.2363 3.95798 17.9589C3.68054 17.6814 3.54183 17.3479 3.54183 16.9583V7.75C3.34113 7.75 3.17291 7.68212 3.03714 7.54635C2.90138 7.41059 2.8335 7.24236 2.8335 7.04167C2.8335 6.84097 2.90138 6.67274 3.03714 6.53698C3.17291 6.40122 3.34113 6.33333 3.54183 6.33333H6.37516C6.37516 6.13264 6.44304 5.96441 6.57881 5.82865C6.71457 5.69288 6.8828 5.625 7.0835 5.625H9.91683C10.1175 5.625 10.2858 5.69288 10.4215 5.82865C10.5573 5.96441 10.6252 6.13264 10.6252 6.33333H13.4585C13.6592 6.33333 13.8274 6.40122 13.9632 6.53698C14.0989 6.67274 14.1668 6.84097 14.1668 7.04167C14.1668 7.24236 14.0989 7.41059 13.9632 7.54635C13.8274 7.68212 13.6592 7.75 13.4585 7.75V16.9583C13.4585 17.3479 13.3198 17.6814 13.0424 17.9589C12.7649 18.2363 12.4314 18.375 12.0418 18.375H4.9585ZM7.0835 15.5417C7.28419 15.5417 7.45242 15.4738 7.58818 15.338C7.72395 15.2023 7.79183 15.034 7.79183 14.8333V9.875C7.79183 9.67431 7.72395 9.50608 7.58818 9.37031C7.45242 9.23455 7.28419 9.16667 7.0835 9.16667C6.8828 9.16667 6.71457 9.23455 6.57881 9.37031C6.44304 9.50608 6.37516 9.67431 6.37516 9.875V14.8333C6.37516 15.034 6.44304 15.2023 6.57881 15.338C6.71457 15.4738 6.8828 15.5417 7.0835 15.5417ZM9.91683 15.5417C10.1175 15.5417 10.2858 15.4738 10.4215 15.338C10.5573 15.2023 10.6252 15.034 10.6252 14.8333V9.875C10.6252 9.67431 10.5573 9.50608 10.4215 9.37031C10.2858 9.23455 10.1175 9.16667 9.91683 9.16667C9.71613 9.16667 9.54791 9.23455 9.41214 9.37031C9.27638 9.50608 9.2085 9.67431 9.2085 9.875V14.8333C9.2085 15.034 9.27638 15.2023 9.41214 15.338C9.54791 15.4738 9.71613 15.5417 9.91683 15.5417Z" fill="#1C1B1F"/>
</g>
</svg>
